Coordinates
version=1
nRows=11
nColumns=40
inDegrees=yes

Units are S.I. units (second, meters, Newtons, ...)
If the header above contains a line with 'inDegrees', this indicates whether rotational values are in degrees (yes) or radians (no).

endheader
time	pelvis_tilt	pelvis_list	pelvis_rotation	pelvis_tx	pelvis_ty	pelvis_tz	hip_flexion_r	hip_adduction_r	hip_rotation_r	knee_angle_r	knee_angle_r_beta	ankle_angle_r	subtalar_angle_r	mtp_angle_r	hip_flexion_l	hip_adduction_l	hip_rotation_l	knee_angle_l	knee_angle_l_beta	ankle_angle_l	subtalar_angle_l	mtp_angle_l	lumbar_extension	lumbar_bending	lumbar_rotation	arm_flex_r	arm_add_r	arm_rot_r	elbow_flex_r	pro_sup_r	wrist_flex_r	wrist_dev_r	arm_flex_l	arm_add_l	arm_rot_l	elbow_flex_l	pro_sup_l	wrist_flex_l	wrist_dev_l
      5.13500000	    -40.56515340	     -2.27798033	      7.55758844	      0.04351313	      0.66634807	     -1.19722215	     96.12535448	    -41.55018279	     -6.01208896	     76.51314190	      1.33540625	     10.86229934	    -10.30716676	      0.00000000	     98.28732160	    -24.94626850	     -2.42316213	     69.98976251	      1.22155180	      8.52063430	      4.26159861	      0.00000000	      0.00000000	      0.00000000	      0.00000000	     44.99991710	    -14.99999999	     44.99991710	     75.00017585	     45.00000026	      0.00000000	      0.00000000	     44.99991710	    -14.99999999	     44.99991710	     75.00017585	     45.00000026	      0.00000000	      0.00000000
      5.14000000	    -40.44825707	     -2.25380539	      7.54299475	      0.04416518	      0.66672022	     -1.19714810	     95.93840113	    -41.56610306	     -6.06795104	     76.51157488	      1.33537890	     10.86447331	    -10.25359891	      0.00000000	     98.11430071	    -25.00348146	     -2.47502405	     69.99942149	      1.22172038	      8.50416271	      4.22055628	      0.00000000	      0.00000000	      0.00000000	      0.00000000	     44.99991712	    -14.99999999	     44.99991712	     75.00017585	     45.00000026	      0.00000000	      0.00000000	     44.99991712	    -14.99999999	     44.99991712	     75.00017585	     45.00000026	      0.00000000	      0.00000000
      5.14500000	    -40.55964601	     -2.33093394	      7.51842370	      0.04451791	      0.66613117	     -1.19716484	     96.04480701	    -41.55552569	     -6.08763946	     76.62519612	      1.33736196	     11.05406754	    -10.23859243	      0.00000000	     98.32684588	    -25.01116081	     -2.27520822	     70.13961800	      1.22416727	      8.79338008	      4.49434959	      0.00000000	      0.00000000	      0.00000000	      0.00000000	     44.99991714	    -14.99999999	     44.99991714	     75.00017585	     45.00000026	      0.00000000	      0.00000000	     44.99991714	    -14.99999999	     44.99991714	     75.00017585	     45.00000026	      0.00000000	      0.00000000
      5.15000000	    -40.42428085	     -2.29353169	      7.48705060	      0.04519252	      0.66661046	     -1.19706899	     95.83047867	    -41.55384944	     -6.14408389	     76.59995799	      1.33692147	     11.00022799	    -10.15107702	      0.00000000	     98.11480720	    -25.08454664	     -2.34119604	     70.12926378	      1.22398656	      8.72341537	      4.41538165	      0.00000000	      0.00000000	      0.00000000	      0.00000000	     44.99991716	    -14.99999999	     44.99991716	     75.00017585	     45.00000026	      0.00000000	      0.00000000	     44.99991716	    -14.99999999	     44.99991716	     75.00017585	     45.00000026	      0.00000000	      0.00000000
      5.15500000	    -40.30373931	     -2.26456609	      7.47174798	      0.04584839	      0.66702225	     -1.19700757	     95.63686219	    -41.56897310	     -6.19899476	     76.59147711	      1.33677345	     11.00636622	    -10.10472561	      0.00000000	     97.93011234	    -25.13846016	     -2.39795617	     70.13363224	      1.22406280	      8.70107774	      4.35913001	      0.00000000	      0.00000000	      0.00000000	      0.00000000	     44.99991718	    -14.99999999	     44.99991718	     75.00017585	     45.00000026	      0.00000000	      0.00000000	     44.99991718	    -14.99999999	     44.99991718	     75.00017585	     45.00000026	      0.00000000	      0.00000000
      5.16000000	    -40.18633347	     -2.23901612	      7.45444176	      0.04647862	      0.66740690	     -1.19697983	     95.45084855	    -41.58087491	     -6.24714125	     76.58477476	      1.33665648	     11.02365380	    -10.06219472	      0.00000000	     97.75111499	    -25.18399799	     -2.43768962	     70.13980960	      1.22417061	      8.69730695	      4.31440773	      0.00000000	      0.00000000	      0.00000000	      0.00000000	     44.99991720	    -14.99999999	     44.99991720	     75.00017585	     45.00000026	      0.00000000	      0.00000000	     44.99991720	    -14.99999999	     44.99991720	     75.00017585	     45.00000026	      0.00000000	      0.00000000
      5.16500000	    -40.08147910	     -2.21583061	      7.44125762	      0.04710468	      0.66776735	     -1.19694949	     95.27619322	    -41.59559235	     -6.29565183	     76.58137146	      1.33659708	     11.05708476	    -10.02695754	      0.00000000	     97.58714577	    -25.22248878	     -2.46886739	     70.15025279	      1.22435288	      8.71529946	      4.28454433	      0.00000000	      0.00000000	      0.00000000	      0.00000000	     44.99991721	    -14.99999999	     44.99991721	     75.00017585	     45.00000026	      0.00000000	      0.00000000	     44.99991721	    -14.99999999	     44.99991721	     75.00017585	     45.00000026	      0.00000000	      0.00000000
      5.17000000	    -39.98637478	     -2.19489111	      7.42801599	      0.04771957	      0.66810887	     -1.19692559	     95.11102527	    -41.60984640	     -6.34469647	     76.57787632	      1.33653608	     11.09754099	     -9.99247206	      0.00000000	     97.43470660	    -25.25686529	     -2.49180033	     70.16218004	      1.22456105	      8.74779777	      4.26688532	      0.00000000	      0.00000000	      0.00000000	      0.00000000	     44.99991723	    -14.99999999	     44.99991723	     75.00017585	     45.00000026	      0.00000000	      0.00000000	     44.99991723	    -14.99999999	     44.99991723	     75.00017585	     45.00000026	      0.00000000	      0.00000000
      5.17500000	    -39.89949691	     -2.17614406	      7.41366538	      0.04832274	      0.66843882	     -1.19690726	     94.95313472	    -41.62215188	     -6.39419048	     76.57254135	      1.33644296	     11.14024586	     -9.95591709	      0.00000000	     97.29158036	    -25.28891782	     -2.50845294	     70.17393879	      1.22476628	      8.78950529	      4.25885006	      0.00000000	      0.00000000	      0.00000000	      0.00000000	     44.99991725	    -14.99999999	     44.99991725	     75.00017585	     45.00000026	      0.00000000	      0.00000000	     44.99991725	    -14.99999999	     44.99991725	     75.00017585	     45.00000026	      0.00000000	      0.00000000
      5.18000000	    -39.81971358	     -2.15916258	      7.39790439	      0.04891518	      0.66876342	     -1.19689244	     94.80094044	    -41.63208703	     -6.44434934	     76.56442201	      1.33630125	     11.18298119	     -9.91652960	      0.00000000	     97.15580165	    -25.31967670	     -2.52075544	     70.18445024	      1.22494974	      8.83658830	      4.25817330	      0.00000000	      0.00000000	      0.00000000	      0.00000000	     44.99991727	    -14.99999999	     44.99991727	     75.00017585	     45.00000026	      0.00000000	      0.00000000	     44.99991727	    -14.99999999	     44.99991727	     75.00017585	     45.00000026	      0.00000000	      0.00000000
      5.18500000	    -39.74607296	     -2.14356775	      7.38081535	      0.04949789	      0.66908725	     -1.19687924	     94.65321605	    -41.63964030	     -6.49532930	     76.55305445	      1.33610285	     11.22477340	     -9.87447919	      0.00000000	     97.02574529	    -25.34975780	     -2.53037551	     70.19287400	      1.22509676	      8.88630203	      4.26303115	      0.00000000	      0.00000000	      0.00000000	      0.00000000	     44.99991729	    -14.99999999	     44.99991729	     75.00017585	     45.00000026	      0.00000000	      0.00000000	     44.99991729	    -14.99999999	     44.99991729	     75.00017585	     45.00000026	      0.00000000	      0.00000000
